<?xml version="1.0" standalone="no"?>
<!DOCTYPE svg PUBLIC "-//W3C//DTD SVG 1.1//EN" "http://www.w3.org/Graphics/SVG/1.1/DTD/svg11.dtd" >
<svg xmlns="http://www.w3.org/2000/svg">
<metadata>
<json>
{
	"fontFamily": "icons",
	"majorVersion": 1,
	"minorVersion": 0,
	"version": "Version 1.0",
	"fontId": "icons",
	"psName": "icons",
	"subFamily": "Regular",
	"fullName": "icons",
	"description": "Font generated by IcoMoon."
}
</json>
</metadata>
<defs>
<font id="icons" horiz-adv-x="512">
<font-face units-per-em="512" ascent="480" descent="-32" />
<missing-glyph horiz-adv-x="512" />
<glyph unicode="&#x20;" d="" horiz-adv-x="256" />
<glyph unicode="&#xe600;" d="M105.359 334.48h31.764l14.786-260.495c0.297-5.417 4.792-9.656 10.22-9.656h193.874c5.427 0 9.923 4.25 10.219 9.666l14.551 260.485h31.785c5.663 0 10.24 4.587 10.24 10.24s-4.577 10.24-10.24 10.24h-38.308c-0.563 0-1.055-0.236-1.598-0.317-0.533 0.082-1.024 0.317-1.567 0.317h-53.719v26.798c0 5.652-4.577 10.24-10.24 10.24h-96.348c-5.662 0-10.24-4.588-10.24-10.24v-26.798h-53.739c-0.471 0-0.891-0.215-1.351-0.276-0.471 0.071-0.891 0.276-1.382 0.276h-38.697c-5.662 0-10.24-4.587-10.24-10.24s4.567-10.24 10.23-10.24zM221.020 371.517h75.868v-16.558h-75.868v16.558zM360.264 334.48l-13.947-249.682h-174.51l-14.172 249.682h202.629zM208.251 103.998c0.205 0 0.389 0 0.594 0.010 5.653 0.317 9.964 5.161 9.636 10.803l-10.773 189.798c-0.317 5.652-5.294 9.902-10.803 9.646-5.653-0.317-9.964-5.161-9.636-10.803l10.773-189.798c0.307-5.447 4.823-9.656 10.209-9.656zM308.705 104.007c0.205-0.010 0.389-0.010 0.594-0.010 5.386 0 9.902 4.209 10.209 9.656l10.772 189.798c0.317 5.642-3.993 10.486-9.636 10.803-5.56 0.236-10.476-3.994-10.803-9.646l-10.772-189.798c-0.317-5.642 3.993-10.486 9.636-10.803zM258.959 103.998c5.663 0 10.24 4.587 10.24 10.24v189.798c0 5.652-4.577 10.24-10.24 10.24s-10.24-4.588-10.24-10.24v-189.798c0-5.652 4.577-10.24 10.24-10.24z" />
<glyph unicode="&#xe601;" d="M535.17 177.428h-301.193c-3.909 0-7.565 1.925-9.778 5.148l-90.149 131.342c-2.492 3.63-2.767 8.34-0.716 12.236s6.091 6.334 10.493 6.334h391.342c6.55 0 11.859-5.309 11.859-11.859s-5.309-11.859-11.859-11.859h-368.818l73.87-107.624h294.949c6.55 0 11.859-5.309 11.859-11.859s-5.31-11.859-11.86-11.859zM548.542 108.655h-274.265c-6.55 0-11.859 5.309-11.859 11.859s5.309 11.859 11.859 11.859h255.091l-24.213 48.502c-2.926 5.86-0.546 12.981 5.313 15.907 5.861 2.926 12.983 0.546 15.907-5.313l32.779-65.658c1.836-3.676 1.637-8.041-0.524-11.535s-5.977-5.621-10.086-5.621zM535.17 311.327c-6.55 0-11.859 5.309-11.859 11.859v46.94c0 5.275 3.484 9.916 8.549 11.388l65.216 18.954c6.289 1.829 12.87-1.788 14.698-8.078s-1.788-12.87-8.078-14.697l-56.667-16.47v-38.037c0-6.548-5.309-11.858-11.859-11.858zM528.667 81.404c0-9.477-7.688-17.165-17.182-17.165v0c-9.488 0-17.187 7.688-17.187 17.165v0c0 9.504 7.699 17.203 17.187 17.203v0c9.494 0 17.182-7.699 17.182-17.203v0zM332.998 81.404c0-9.477-7.683-17.165-17.176-17.165v0c-9.493 0-17.187 7.688-17.187 17.165v0c0 9.504 7.694 17.203 17.187 17.203v0c9.493 0 17.176-7.699 17.176-17.203v0z" horiz-adv-x="724" />
<glyph unicode="&#xe602;" d="M104.243 198.892l24.535-2.693c3.256-13.312 8.519-25.918 15.678-37.632l-14.971-18.627c-3.277-4.075-2.96-9.974 0.748-13.66l27.065-26.983c3.686-3.687 9.543-4.004 13.619-0.748l18.76 14.971c11.459-6.953 23.767-12.103 36.772-15.36l2.724-24.73c0.573-5.192 4.956-9.124 10.178-9.124h38.267c5.223 0 9.605 3.932 10.178 9.113l2.673 24.228c13.517 3.164 26.317 8.336 38.206 15.462l18.841-15.063c4.034-3.236 9.913-2.939 13.619 0.748l27.075 26.983c3.707 3.697 4.034 9.605 0.748 13.671l-14.848 18.432c7.414 11.95 12.82 24.822 16.149 38.441l23.419 2.56c5.202 0.574 9.134 4.956 9.134 10.178v38.154c0 5.222-3.932 9.605-9.124 10.178l-23.358 2.56c-3.308 13.671-8.714 26.594-16.108 38.574l14.736 18.32c3.277 4.076 2.959 9.974-0.748 13.671l-27.075 26.983c-3.697 3.686-9.584 3.983-13.619 0.748l-18.647-14.91c-11.94 7.178-24.812 12.401-38.41 15.575l-2.663 23.962c-0.584 5.181-4.956 9.113-10.178 9.113h-38.267c-5.222 0-9.605-3.922-10.178-9.113l-2.714-24.464c-12.964-3.246-25.242-8.377-36.679-15.309l-18.954 15.135c-4.066 3.257-9.933 2.929-13.619-0.747l-27.075-26.983c-3.707-3.696-4.034-9.595-0.748-13.671l15.114-18.791c-7.23-11.796-12.524-24.514-15.79-37.959l-24.463-2.693c-5.192-0.574-9.124-4.956-9.124-10.179v-38.154c0-5.202 3.932-9.595 9.124-10.168zM115.6 238.060l22.692 2.499c4.495 0.492 8.131 3.881 8.95 8.325 2.929 15.903 9.083 30.699 18.288 43.97 2.59 3.728 2.406 8.714-0.43 12.247l-13.988 17.408 14.070 14.029 17.561-14.019c3.512-2.816 8.458-2.98 12.175-0.45 12.984 8.899 27.392 14.91 42.834 17.879 4.413 0.85 7.751 4.465 8.254 8.93l2.509 22.63h19.927l2.468-22.262c0.502-4.526 3.932-8.172 8.418-8.96 16.056-2.806 31.007-8.868 44.431-18.002 3.707-2.54 8.653-2.345 12.155 0.461l17.244 13.783 14.070-14.018-13.65-16.958c-2.846-3.554-3.021-8.56-0.409-12.288 9.411-13.435 15.667-28.416 18.606-44.524 0.809-4.454 4.454-7.844 8.95-8.335l21.596-2.365v-19.794l-21.637-2.365c-4.495-0.491-8.141-3.87-8.96-8.325-2.959-16.046-9.236-30.986-18.658-44.39-2.622-3.738-2.457-8.755 0.399-12.308l13.762-17.081-14.070-14.019-17.418 13.926c-3.502 2.796-8.418 2.99-12.144 0.471-13.373-9.072-28.262-15.084-44.247-17.879-4.485-0.778-7.916-4.434-8.418-8.96l-2.478-22.528h-19.927l-2.519 22.897c-0.492 4.464-3.84 8.089-8.254 8.94-15.472 2.98-29.911 9.011-42.906 17.93-3.738 2.56-8.684 2.386-12.185-0.44l-17.367-13.865-14.070 14.029 13.865 17.244c2.837 3.533 3.021 8.519 0.44 12.247-9.165 13.22-15.278 27.914-18.207 43.673-0.829 4.444-4.464 7.813-8.95 8.315l-22.743 2.498v19.804zM258.959 187.279c22.599 0 40.981 18.34 40.981 40.878s-18.381 40.878-40.981 40.878c-22.589 0-40.97-18.34-40.97-40.878s18.381-40.878 40.97-40.878zM258.959 248.546c11.305 0 20.5-9.155 20.5-20.398s-9.195-20.398-20.5-20.398-20.49 9.154-20.49 20.398 9.196 20.398 20.49 20.398z" />
<glyph unicode="&#xe603;" d="M250.163 68.834c1.905-2.826 5.089-4.516 8.489-4.516v0c3.41 0 6.594 1.7 8.489 4.516l96.625 143.545c11.55 18.422 17.664 39.577 17.664 61.194 0 65.29-55.122 118.416-122.88 118.416s-122.88-53.125-122.88-118.416c0-21.648 6.134-42.844 17.91-61.563l96.583-143.175zM258.56 371.517c56.464 0 102.4-43.94 102.4-97.935 0-17.756-5.028-35.154-14.356-50.033l-87.962-130.663-87.9 130.314c-9.543 15.175-14.582 32.594-14.582 50.381 0 53.995 45.936 97.936 102.4 97.936zM258.56 217.692c32.103 0 58.224 25.262 58.224 56.32s-26.112 56.32-58.224 56.32-58.225-25.262-58.225-56.32 26.122-56.32 58.225-56.32zM258.56 309.852c20.808 0 37.745-16.077 37.745-35.84s-16.926-35.84-37.745-35.84-37.745 16.077-37.745 35.84 16.937 35.84 37.745 35.84z" />
<glyph unicode="&#xe604;" d="M428.012 134.267v184.32c0 5.253-3.993 9.411-9.083 10.005-0.092 0.020-0.174 0.041-0.256 0.051-0.307 0.031-0.584 0.185-0.901 0.185h-307.2c-0.328 0-0.615-0.154-0.932-0.185-0.665-0.061-1.29-0.195-1.936-0.389-0.665-0.195-1.28-0.42-1.874-0.738-0.543-0.286-1.024-0.635-1.505-1.014-0.573-0.451-1.075-0.922-1.546-1.485-0.195-0.236-0.461-0.358-0.635-0.615-0.195-0.276-0.225-0.614-0.389-0.901-0.348-0.615-0.604-1.229-0.819-1.915-0.205-0.666-0.338-1.321-0.4-2.007-0.031-0.338-0.195-0.635-0.195-0.983v-184.32c0-5.663 4.578-10.24 10.24-10.24h307.2c5.652-0.010 10.23 4.577 10.23 10.23zM384.021 308.347l-120.269-82.862-120.269 82.862h240.537zM120.811 144.507v154.594l137.134-94.485c1.751-1.209 3.779-1.813 5.806-1.813s4.055 0.604 5.806 1.813l137.974 95.058v-155.167h-286.72z" />
<glyph unicode="&#xe605;" d="M214.231 153.365c28.242 0 54.958 9.789 76.37 27.689l11.029-11.029-3.666-3.666c-1.925-1.925-3-4.526-3-7.24s1.075-5.325 3-7.24l84.551-84.541c1.997-1.997 4.618-3 7.24-3s5.243 1.003 7.24 3l22.61 22.61c1.925 1.925 3 4.526 3 7.24s-1.075 5.325-3 7.24l-84.552 84.541c-4.004 4.004-10.476 4.004-14.479 0l-4.464-4.464-10.988 10.988c18.361 21.545 28.437 48.569 28.437 77.179 0 31.867-12.411 61.829-34.949 84.368s-52.5 34.949-84.368 34.949-61.829-12.411-84.357-34.949c-22.538-22.538-34.949-52.49-34.949-84.368 0-31.867 12.411-61.829 34.949-84.357 22.518-22.548 52.48-34.949 84.347-34.949zM397.875 97.178l-8.13-8.12-70.072 70.062 8.13 8.12 70.072-70.062zM144.353 342.548c18.667 18.668 43.479 28.948 69.878 28.948s51.221-10.281 69.888-28.948c18.668-18.668 28.949-43.49 28.949-69.888s-10.281-51.21-28.949-69.878c-18.668-18.668-43.489-28.949-69.888-28.949s-51.21 10.281-69.878 28.949c-18.668 18.668-28.948 43.489-28.948 69.878 0 26.409 10.27 51.221 28.948 69.888z" />
<glyph unicode="&#xe606;" d="M238.008 119.152c0-5.652 4.588-10.24 10.24-10.24h24.187c5.652 0 10.24 4.587 10.24 10.24v33.086c8.346 6.687 13.322 16.784 13.322 27.597 0 19.62-15.995 35.584-35.656 35.584s-35.656-15.964-35.656-35.584c0-10.813 4.976-20.91 13.322-27.597v-33.086zM260.352 194.928c8.366 0 15.175-6.779 15.175-15.104 0-5.438-3.051-10.486-7.977-13.159-3.298-1.792-5.346-5.243-5.346-8.99v-28.283h-3.707v28.283c0 3.748-2.048 7.209-5.345 8.99-4.915 2.673-7.977 7.721-7.977 13.159-0.010 8.336 6.799 15.104 15.175 15.104zM147.712 64.389h225.28c5.652 0 10.24 4.587 10.24 10.24v173.506c0 5.653-4.587 10.24-10.24 10.24h-203.929c-10.393 30.782-2.611 64.799 20.849 87.962 33.71 33.27 88.832 33.557 122.859 0.686 0.738-0.717 25.365-25.026 25.365-25.026l14.387 14.582c0 0-25.252 24.924-25.488 25.149-41.994 40.581-109.957 40.213-151.501-0.819-27.422-27.074-37.744-66.171-28.006-102.564-5.56-0.102-10.046-4.618-10.046-10.199v-173.507c-0.010-5.663 4.567-10.25 10.23-10.25zM362.752 84.869h-204.8v153.026h204.8v-153.026z" />
<glyph unicode="&#xe607;" d="M147.712 64.317h225.28c5.652 0 10.24 4.587 10.24 10.24v175.207c0 5.653-4.587 10.24-10.24 10.24h-4.854c0 10.547 0 25.477 0 25.682-0.635 58.624-48.978 106.311-107.776 106.311-58.972 0-107.315-47.831-107.786-106.701v-25.293h-4.854c-5.653 0-10.24-4.588-10.24-10.24v-175.206c-0.010-5.652 4.567-10.24 10.23-10.24zM362.752 84.798h-204.8v154.726h204.8v-154.726zM173.046 285.214c0.379 47.585 39.536 86.303 87.306 86.303 47.626 0 86.794-38.605 87.296-86.006 0-0.666 0-15.175 0-25.508h-174.613l0.010 25.211zM238.008 119.152c0-5.652 4.588-10.24 10.24-10.24h24.187c5.652 0 10.24 4.587 10.24 10.24v33.086c8.346 6.687 13.322 16.784 13.322 27.597 0 19.62-15.995 35.584-35.656 35.584s-35.656-15.964-35.656-35.584c0-10.813 4.976-20.91 13.322-27.597v-33.086zM260.352 194.928c8.366 0 15.175-6.779 15.175-15.104 0-5.438-3.051-10.486-7.977-13.159-3.298-1.792-5.346-5.243-5.346-8.99v-28.283h-3.707v28.283c0 3.748-2.048 7.209-5.345 8.99-4.915 2.673-7.977 7.721-7.977 13.159-0.010 8.336 6.799 15.104 15.175 15.104z" />
<glyph unicode="&#xe608;" d="M254.935 383.099c-1.925 1.925-4.516 3.001-7.239 3.001l-132.679 0.010c-5.642 0-10.219-4.557-10.24-10.199l-0.471-133.171c-0.010-2.734 1.065-5.345 3.001-7.28l174.029-174.029c1.925-1.925 4.516-3 7.24-3s5.325 1.075 7.24 3l133.161 133.161c4.004 4.004 4.004 10.476 0 14.479l-174.039 174.029zM288.574 83.149l-163.768 163.779 0.42 118.702 118.242-0.010 163.789-163.789-118.681-118.682zM235.233 281.897c0-14.761-11.966-26.726-26.726-26.726s-26.726 11.966-26.726 26.726c0 14.761 11.966 26.726 26.726 26.726s26.726-11.966 26.726-26.726z" />
<glyph unicode="&#xe609;" d="M144.65 167.875c26.768 0 49.101 20.070 54.016 46.551h148.296v-27.873c0-5.663 4.587-10.24 10.24-10.24s10.24 4.577 10.24 10.24v27.873h29.358v-44.175c0-5.663 4.587-10.24 10.24-10.24s10.24 4.577 10.24 10.24v54.416c0 5.662-4.587 10.24-10.24 10.24h-208.159c-4.362 27.187-26.983 47.984-54.231 47.984-30.352 0-55.050-25.794-55.050-57.497s24.699-57.518 55.050-57.518zM144.65 262.4c19.056 0 34.57-16.609 34.57-37.017 0-20.418-15.513-37.028-34.57-37.028s-34.57 16.61-34.57 37.028c0 20.409 15.513 37.018 34.57 37.018z" />
<glyph unicode="&#xe60a;" d="M246.548 243.876c-23.184 8.222-49.541 2.396-67.389-15.175-1.362-1.362-7.998-7.997-12.903-12.903-0.010-0.010-0.010-0.010-0.020-0.010-42.998-42.998-43.479-43.49-43.479-43.49-24.699-25.221-24.494-66.068 0.492-91.044 12.554-12.554 29.081-18.852 45.66-18.852 16.517 0 33.096 6.247 45.855 18.8 33.679 33.68 41.031 41.031 42.762 42.772l13.63 13.63c17.428 17.808 23.070 43.469 14.725 66.969-1.904 5.335-7.772 8.11-13.066 6.226-5.335-1.894-8.12-7.752-6.226-13.066 5.704-16.077 1.853-33.628-9.994-45.732l-19.056-19.057c0 0 0-0.010-0.010-0.010-11.059-11.059-34.54-34.529-37.447-37.447-17.264-16.978-45.22-16.865-62.341 0.246-17.070 17.070-17.224 44.995-0.358 62.208 0.994 1.003 43.346 43.356 43.346 43.356 0.010 0.010 0.010 0.010 0.010 0.021 5.059 5.058 11.623 11.612 13.097 13.087 12.185 12.001 29.767 15.882 45.875 10.168 5.294-1.874 11.172 0.901 13.066 6.226 1.894 5.345-0.891 11.192-6.226 13.077zM311.193 204.688c16.784 0 33.362 6.502 45.66 18.606l56.658 56.658c24.688 25.241 24.474 66.079-0.502 91.054-25.067 25.037-65.966 25.201-90.88 0.645-0.246-0.226-0.286-0.266-43.653-43.632 0 0 0-0.010-0.010-0.010l-13.353-13.363c-17.439-17.808-23.081-43.469-14.725-66.969 1.495-4.188 5.438-6.81 9.646-6.81 1.137 0 2.304 0.195 3.43 0.594 5.335 1.905 8.11 7.751 6.216 13.077-5.714 16.066-1.853 33.608 9.994 45.712l19.057 19.067c11.582 11.571 36.7 36.69 37.468 37.447 17.244 16.988 45.2 16.855 62.32-0.236 17.070-17.070 17.224-44.995 0.42-62.167l-56.514-56.515c-12.012-11.797-29.993-15.77-45.865-10.168-5.315 1.894-11.182-0.891-13.066-6.226-1.894-5.335 0.901-11.182 6.226-13.066 6.983-2.498 14.244-3.697 21.474-3.697zM207.923 165.918c1.997-1.997 4.618-3 7.239-3s5.243 1.003 7.239 3l105.943 105.943c4.004 4.004 4.004 10.476 0 14.48s-10.476 4.004-14.479 0l-105.943-105.943c-4.004-3.993-4.004-10.476 0-14.479z" />
<glyph unicode="&#xe60b;" d="M88.75 326.4h307.2c5.652 0 10.24 4.577 10.24 10.24s-4.587 10.24-10.24 10.24h-307.2c-5.653 0-10.24-4.577-10.24-10.24s4.578-10.24 10.24-10.24zM88.75 101.12h307.2c5.652 0 10.24 4.577 10.24 10.24s-4.587 10.24-10.24 10.24h-307.2c-5.653 0-10.24-4.577-10.24-10.24s4.578-10.24 10.24-10.24zM88.75 213.76h307.2c5.652 0 10.24 4.577 10.24 10.24s-4.587 10.24-10.24 10.24h-307.2c-5.653 0-10.24-4.577-10.24-10.24s4.578-10.24 10.24-10.24z" />
<glyph unicode="&#xe60c;" d="M366.080 52.48c0.993 0 1.986 0.144 2.969 0.44 4.322 1.31 7.271 5.294 7.271 9.8v307.2c0 5.662-4.577 10.24-10.24 10.24h-204.8c-5.662 0-10.24-4.578-10.24-10.24v-307.2c0-4.505 2.949-8.489 7.27-9.8 4.311-1.321 8.99 0.368 11.489 4.116l93.88 140.82 93.88-140.821c1.925-2.898 5.161-4.557 8.519-4.557zM355.84 96.543l-83.641 125.461c-1.904 2.846-5.099 4.557-8.519 4.557s-6.615-1.71-8.519-4.557l-83.641-125.461v263.137h184.32v-263.137z" />
<glyph unicode="&#xe60d;" d="M92.324 61.829c1.997-1.997 4.618-2.99 7.24-2.99s5.243 1.003 7.25 3l146.35 146.524 146.35-146.524c1.997-2.007 4.618-3 7.25-3 2.622 0 5.243 1.003 7.24 2.99 4.004 3.993 4.004 10.476 0.010 14.479l-146.207 146.37 146.197 146.361c3.993 4.004 3.993 10.486-0.010 14.48-4.014 4.004-10.486 4.004-14.479-0.010l-146.361-146.524-146.35 146.524c-4.004 4.004-10.486 4.004-14.48 0.010-4.004-3.993-4.004-10.475-0.010-14.479l146.186-146.361-146.186-146.37c-3.993-3.993-3.993-10.486 0.010-14.479z" />
<glyph unicode="&#xe60e;" d="M412.334 330.209l-197.56-197.56-95.16 95.161c-4.004 4.004-10.475 4.004-14.48 0s-4.004-10.476 0-14.479l102.4-102.4c1.997-1.997 4.618-3 7.239-3s5.243 1.003 7.239 3l204.8 204.8c4.004 4.004 4.004 10.476 0 14.479s-10.486 4.004-14.479 0z" />
<glyph unicode="&#xe60f;" d="M159.365 61.839c1.997-1.997 4.618-3 7.239-3s5.243 1.003 7.239 3l153.6 153.6c4.004 4.004 4.004 10.476 0 14.48l-153.6 153.6c-4.004 4.004-10.476 4.004-14.48 0s-4.004-10.476 0-14.479l146.361-146.361-146.361-146.361c-4.004-4.004-4.004-10.486 0-14.479z" />
<glyph unicode="&#xf082;" d="M0 82.286v274.286q0 34 24.143 58.143t58.143 24.143h274.286q34 0 58.143-24.143t24.143-58.143v-274.286q0-34-24.143-58.143t-58.143-24.143h-54.857v173.714h58l8.572 64h-66.572v40.857q0 15.429 8 23.715t27.428 8.286l37.714 0.286v59.143q-27.428 2.572-51.428 2.572-38.857 0-62.286-23t-23.428-64.428v-47.428h-64v-64h64v-173.714h-155.429q-34 0-58.143 24.143t-24.143 58.143z" />
<glyph unicode="&#xf099;" d="M12.572 78q10-1.143 22.285-1.143 64.285 0 114.571 39.428-30 0.572-53.715 18.428t-32.572 45.572q9.428-1.428 17.428-1.428 12.285 0 24.285 3.143-32 6.572-53 31.857t-21 58.714v1.143q19.428-10.857 41.715-11.714-18.857 12.572-30 32.857t-11.143 44q0 25.143 12.572 46.572 34.572-42.572 84.143-68.143t106.143-28.428q-2.286 10.857-2.286 21.143 0 38.286 27 65.286t65.286 27q40 0 67.428-29.143 31.143 6 58.572 22.286-10.572-32.857-40.572-50.857 26.572 2.857 53.143 14.286-19.143-28-46.286-47.715 0.286-4 0.286-12 0-37.143-10.857-74.143t-33-71-52.714-60.143-73.714-41.714-92.286-15.572q-77.428 0-141.714 41.428z" horiz-adv-x="476" />
<glyph unicode="&#xf0d3;" d="M0 82.286v274.286q0 34 24.143 58.143t58.143 24.143h274.286q34 0 58.143-24.143t24.143-58.143v-274.286q0-34-24.143-58.143t-58.143-24.143h-207.143q24.285 34.857 30.857 60 2.571 9.714 15.143 59.714 6-11.143 21-19.143t32.143-8q51.714 0 84.428 42.143t32.714 106.714q0 24-10 46.428t-27.572 39.714-43.572 27.714-56.286 10.428q-29.714 0-55.572-8.143t-43.714-21.857-30.715-31.285-19-36.572-6.143-37.857q0-29.143 11.285-51.428t33.285-31.428q3.715-1.428 6.715 0t4.143 5.428q2.857 12.572 4.286 17.428 1.714 6.572-3.143 12-14.285 17.714-14.285 42.857 0 42.857 29.572 73.286t77.286 30.428q42.572 0 66.428-23.143t23.857-60q0-48-19.286-81.714t-49.572-33.714q-17.143 0-27.714 12.428t-6.572 29.572q2.286 9.714 7.572 26.428t8.428 29.143 3.143 21.286q0 14-7.571 23.286t-21.572 9.286q-17.428 0-29.572-16.143t-12.143-39.857q0-20.572 6.857-34.572l-28-118.286q-6.857-28.572-2-72.572h-52.285q-34 0-58.143 24.143t-24.143 58.143z" />
<glyph unicode="&#xf16d;" d="M0 56.286v326.286q0 23.143 16.572 39.714t39.715 16.572h326.286q23.143 0 39.714-16.572t16.572-39.714v-326.286q0-23.143-16.572-39.714t-39.714-16.572h-326.286q-23.143 0-39.715 16.572t-16.572 39.714zM48.857 68q0-7.428 5-12.428t12.428-5h305.428q7.143 0 12.286 5t5.143 12.428v185.143h-38.572q5.714-18 5.714-37.428 0-36-18.286-66.428t-49.714-48.143-68.572-17.714q-56.286 0-96.285 38.714t-40 93.572q0 19.428 5.715 37.428h-40.285v-185.143zM131.714 220.286q0-35.428 25.857-60.428t62.143-25q36.572 0 62.428 25t25.857 60.428-25.857 60.428-62.428 25q-36.286 0-62.143-25t-25.857-60.428zM300 323.143q0-8.286 5.714-14t14-5.714h49.714q8.286 0 14 5.714t5.714 14v47.143q0 8-5.714 13.857t-14 5.857h-49.714q-8.286 0-14-5.857t-5.714-13.857v-47.143z" />
</font>
</defs>
</svg>
